<svg width="206" height="135" viewBox="0 0 206 135" fill="none" xmlns="http://www.w3.org/2000/svg">
<path fill-rule="evenodd" clip-rule="evenodd" d="M4.23793 121.753V134.464H0V118.171H9.36364V121.753H4.23793Z" fill="white"/>
<path fill-rule="evenodd" clip-rule="evenodd" d="M10.8794 118.171H17.3703C18.5596 118.171 19.6065 118.363 20.4943 118.74C21.3821 119.125 22.0689 119.711 22.563 120.514C23.0571 121.317 23.3 122.322 23.3 123.518C23.3 124.472 23.1744 125.301 22.9231 126.004C22.6719 126.698 22.3034 127.267 21.8092 127.719C21.3151 128.171 20.7204 128.506 20.0001 128.724C19.2882 128.941 18.4591 129.058 17.5294 129.058H15.1257V134.464H10.8878V118.171H10.8794ZM15.1173 125.644H15.8292C16.5076 125.644 17.0436 125.61 17.454 125.544C17.8561 125.477 18.1994 125.301 18.4675 125.008C18.7355 124.723 18.8779 124.271 18.8779 123.652C18.8779 123.008 18.7522 122.539 18.4842 122.238C18.2246 121.937 17.8896 121.753 17.4959 121.686C17.0939 121.619 16.5411 121.585 15.8292 121.585H15.1173V125.644V125.644Z" fill="white"/>
<path fill-rule="evenodd" clip-rule="evenodd" d="M32.6721 125.987L36.0222 118.171H40.436L32.9317 134.464H28.5849L30.5531 130.355L23.543 118.171H28.4174L32.6721 125.987Z" fill="white"/>
<path fill-rule="evenodd" clip-rule="evenodd" d="M49.7996 125.686C50.3691 125.878 50.88 126.163 51.3239 126.548C51.7678 126.933 52.1279 127.376 52.3792 127.878C52.6388 128.372 52.7645 128.891 52.7645 129.41C52.7645 130.313 52.6137 131.108 52.3206 131.803C52.0274 132.498 51.5919 133.067 51.0391 133.527C50.4864 133.987 49.8247 134.322 49.0458 134.548C48.2753 134.774 47.4042 134.891 46.4494 134.891C44.3975 134.891 42.4879 134.272 40.7207 133.033L42.5382 129.619C43.8112 130.749 45.0759 131.309 46.2987 131.309C47.6722 131.309 48.3506 130.698 48.3506 129.477C48.3506 128.924 48.1496 128.498 47.756 128.196C47.354 127.895 46.8431 127.753 46.2066 127.753H43.761V124.531H46.1228C46.6421 124.531 47.0525 124.38 47.3456 124.087C47.6387 123.794 47.7895 123.376 47.7895 122.849C47.7895 122.38 47.622 122.004 47.287 121.719C46.952 121.435 46.5164 121.292 45.9972 121.292C45.4779 121.292 44.9335 121.393 44.3807 121.594C43.828 121.794 43.3589 122.054 42.9653 122.372L41.2735 119.091C42.0021 118.681 42.8313 118.355 43.7526 118.112C44.6739 117.87 45.5533 117.752 46.3824 117.752C47.488 117.752 48.4679 117.928 49.3054 118.28C50.1513 118.631 50.8046 119.167 51.2736 119.886C51.7427 120.606 51.9772 121.502 51.9772 122.573C51.9772 123.292 51.7762 123.937 51.3825 124.481C50.9889 125.016 50.4612 125.426 49.7996 125.686Z" fill="white"/>
<path fill-rule="evenodd" clip-rule="evenodd" d="M72.2041 126.012C72.2041 127.301 71.9863 128.498 71.5424 129.611C71.1069 130.724 70.4787 131.678 69.658 132.481C68.8456 133.284 67.8908 133.904 66.7852 134.339C65.6797 134.774 64.482 134.992 63.1838 134.992C61.8856 134.992 60.688 134.774 59.5908 134.339C58.4936 133.904 57.5305 133.276 56.7181 132.473C55.8973 131.661 55.2691 130.699 54.8252 129.594C54.3813 128.489 54.1636 127.293 54.1636 126.004C54.1636 124.799 54.4065 123.686 54.8922 122.656C55.378 121.627 56.048 120.74 56.8939 119.987C57.7398 119.234 58.703 118.648 59.8002 118.238C60.889 117.828 62.0197 117.619 63.1838 117.619C64.348 117.619 65.4787 117.828 66.5675 118.238C67.6563 118.648 68.6194 119.225 69.4653 119.987C70.3112 120.74 70.9813 121.636 71.467 122.656C71.9612 123.694 72.2041 124.807 72.2041 126.012ZM58.5774 126.037C58.5774 126.958 58.7868 127.786 59.1972 128.523C59.6076 129.268 60.1687 129.845 60.8806 130.263C61.5841 130.682 62.3547 130.891 63.1922 130.891C64.0297 130.891 64.8003 130.682 65.5038 130.263C66.2073 129.845 66.7685 129.259 67.1789 128.523C67.5893 127.778 67.7986 126.949 67.7986 126.037C67.7986 125.293 67.5893 124.59 67.1789 123.928C66.7685 123.267 66.1989 122.732 65.4954 122.33C64.7919 121.928 64.0214 121.728 63.2006 121.728C62.3798 121.728 61.6176 121.928 60.9057 122.33C60.2022 122.732 59.6327 123.259 59.2223 123.928C58.7868 124.598 58.5774 125.301 58.5774 126.037Z" fill="white"/>
<path fill-rule="evenodd" clip-rule="evenodd" d="M74.1553 134.464V118.171H80.2106C83.4435 118.171 85.0516 119.585 85.0516 122.405C85.0516 124.02 84.4569 125.125 83.2593 125.736V125.778C84.3983 125.928 85.2275 126.364 85.7719 127.083C86.3163 127.811 86.5843 128.757 86.5843 129.929C86.5843 131.51 86.0231 132.657 84.9008 133.385C83.7785 134.113 82.3715 134.473 80.6797 134.473H74.1553V134.464ZM78.3932 131.217H78.9376C79.9761 131.217 80.7969 131.117 81.4083 130.908C82.0113 130.698 82.3129 130.23 82.3129 129.493C82.3129 128.757 82.0616 128.28 81.5674 128.054C81.0733 127.828 80.4033 127.719 79.5657 127.719H78.8287H78.3932V131.217ZM78.3932 124.564H78.8706C79.5657 124.564 80.1185 124.456 80.5373 124.246C80.9561 124.037 81.1654 123.619 81.1654 122.991C81.1654 122.33 80.9477 121.903 80.5038 121.702C80.0599 121.51 79.4652 121.409 78.7031 121.409H78.3932V124.564Z" fill="white"/>
<path fill-rule="evenodd" clip-rule="evenodd" d="M106.007 126.012C106.007 127.301 105.789 128.498 105.345 129.611C104.901 130.724 104.281 131.678 103.461 132.481C102.648 133.284 101.693 133.904 100.588 134.339C99.4823 134.774 98.2846 134.992 96.9948 134.992C95.6966 134.992 94.4989 134.774 93.4018 134.339C92.3046 133.904 91.3414 133.276 90.529 132.473C89.7082 131.661 89.0801 130.699 88.6446 129.594C88.2007 128.489 87.9829 127.293 87.9829 126.004C87.9829 124.799 88.2258 123.686 88.7116 122.656C89.1973 121.627 89.8674 120.74 90.7133 119.987C91.5592 119.234 92.5223 118.648 93.6195 118.238C94.7083 117.828 95.839 117.619 97.0032 117.619C98.1673 117.619 99.298 117.828 100.387 118.238C101.476 118.648 102.439 119.225 103.285 119.987C104.131 120.74 104.801 121.636 105.286 122.656C105.764 123.694 106.007 124.807 106.007 126.012ZM92.38 126.037C92.38 126.958 92.5893 127.786 92.9997 128.523C93.4101 129.268 93.9713 129.845 94.6832 130.263C95.3867 130.682 96.1572 130.891 96.9948 130.891C97.8323 130.891 98.6028 130.682 99.3064 130.263C100.01 129.845 100.571 129.259 100.981 128.523C101.392 127.778 101.601 126.949 101.601 126.037C101.601 125.293 101.392 124.59 100.981 123.928C100.571 123.267 100.002 122.732 99.298 122.33C98.5945 121.928 97.8239 121.728 97.0032 121.728C96.1824 121.728 95.4202 121.928 94.7083 122.33C94.0048 122.732 93.4353 123.259 93.0249 123.928C92.5893 124.598 92.38 125.301 92.38 126.037Z" fill="white"/>
<path fill-rule="evenodd" clip-rule="evenodd" d="M112.196 121.753V124.481H116.97V128.062H112.196V130.874H117.23V134.464H107.95V118.171H117.23V121.753H112.196Z" fill="white"/>
<path fill-rule="evenodd" clip-rule="evenodd" d="M137.146 134.464H132.908V121.753H129.407V118.171H140.655V121.753H137.146V134.464Z" fill="#FAB600"/>
<path fill-rule="evenodd" clip-rule="evenodd" d="M146.343 131.627L145.22 134.456H140.723L146.987 118.163H151.619L157.758 134.456H153.235L152.172 131.627H146.343ZM149.299 123.2H149.257L147.498 128.389H151.016L149.299 123.2Z" fill="#FAB600"/>
<path fill-rule="evenodd" clip-rule="evenodd" d="M168.487 118.171H173.738L167.248 125.887L174.325 134.464H168.83L163.361 127.401H163.319V134.464H159.082V118.171H163.319V124.882H163.361L168.487 118.171Z" fill="#FAB600"/>
<path fill-rule="evenodd" clip-rule="evenodd" d="M187.13 123.636C186.703 123.058 186.159 122.615 185.497 122.305C184.835 121.995 184.14 121.836 183.403 121.836C182.557 121.836 181.812 122.037 181.142 122.431C180.48 122.832 179.969 123.376 179.601 124.062C179.241 124.757 179.056 125.51 179.056 126.347C179.056 127.201 179.241 127.962 179.609 128.632C179.978 129.301 180.497 129.828 181.167 130.213C181.837 130.59 182.607 130.782 183.47 130.782C184.157 130.782 184.827 130.623 185.472 130.314C186.117 130.004 186.67 129.586 187.122 129.05V134.13C186.175 134.414 185.463 134.615 184.978 134.724C184.492 134.833 183.956 134.883 183.378 134.883C182.247 134.883 181.159 134.674 180.112 134.264C179.065 133.853 178.118 133.251 177.264 132.481C175.522 130.908 174.651 128.858 174.651 126.33C174.651 125.209 174.86 124.138 175.271 123.108C175.681 122.079 176.284 121.167 177.055 120.364C177.599 119.82 178.202 119.343 178.872 118.949C179.542 118.556 180.254 118.255 181.008 118.045C181.762 117.836 182.507 117.736 183.261 117.736C184.517 117.736 185.807 118.012 187.13 118.556V123.636Z" fill="#FAB600"/>
<path fill-rule="evenodd" clip-rule="evenodd" d="M206 134.464H201.762V124.481H201.72L193.956 134.464H189.718V118.171H193.956V128.129H193.998L201.762 118.171H206V134.464Z" fill="#FAB600"/>
<path fill-rule="evenodd" clip-rule="evenodd" d="M41.9019 0H42.4127H119.198L96.1071 32.637H63.2255V32.6454L57.1617 32.637L27.044 25.4903H50.4196L20.2851 19.1219H49.6825L13.5178 12.7452L47.7813 12.5694L6.7589 6.37677H44.8835V6.3684L0 0H41.9019Z" fill="#FAB600"/>
<path fill-rule="evenodd" clip-rule="evenodd" d="M122.967 0H128.662H205.95L182.867 32.637H150.597L104.968 97.1327H54.2554L122.967 0Z" fill="white"/>
<path d="M74.2811 8.42676H67.606V15.0964H74.2811V8.42676Z" fill="white"/>
<path d="M87.6229 8.42676H80.9478V15.0964H87.6229V8.42676Z" fill="white"/>
<path d="M80.9559 15.105H74.2808V21.7746H80.9559V15.105Z" fill="white"/>
<path d="M67.6141 15.105H60.939V21.7746H67.6141V15.105Z" fill="white"/>
<path d="M94.2982 15.105H87.623V21.7746H94.2982V15.105Z" fill="white"/>
</svg>