<svg xmlns="http://www.w3.org/2000/svg" fill="none" viewBox="0 0 142 93"><path fill="#484848" fill-rule="evenodd" d="M2.921 83.874v8.757H0V81.407h6.455v2.467H2.92zM7.5 81.407h4.474c.82 0 1.541.132 2.153.392a3.048 3.048 0 0 1 1.426 1.222c.34.553.508 1.245.508 2.07 0 .657-.086 1.228-.26 1.712-.173.478-.427.87-.767 1.181-.341.312-.75.542-1.247.692a5.85 5.85 0 0 1-1.704.23h-1.656v3.725H7.505V81.407H7.5zm2.92 5.148h.492c.467 0 .837-.023 1.12-.07.277-.046.513-.166.698-.368.185-.196.283-.508.283-.934 0-.444-.087-.767-.271-.975a1.126 1.126 0 0 0-.682-.38 7.372 7.372 0 0 0-1.149-.07h-.49v2.797zM22.522 86.791l2.309-5.384h3.043L22.7 92.63h-2.997l1.357-2.83-4.832-8.394h3.36l2.933 5.384zM34.328 86.584c.393.132.745.328 1.05.593.307.265.555.571.728.917.18.34.266.698.266 1.055 0 .623-.104 1.17-.306 1.649-.202.478-.502.87-.884 1.187a3.734 3.734 0 0 1-1.373.704 6.374 6.374 0 0 1-1.79.236c-1.415 0-2.731-.427-3.95-1.28l1.254-2.352c.877.778 1.749 1.165 2.592 1.165.947 0 1.414-.421 1.414-1.263 0-.38-.138-.674-.41-.882-.277-.207-.629-.306-1.068-.306h-1.685v-2.219h1.628c.357 0 .64-.104.842-.305.203-.202.306-.49.306-.854a.97.97 0 0 0-.346-.778c-.23-.196-.531-.294-.889-.294s-.733.07-1.114.207a3.363 3.363 0 0 0-.976.537l-1.166-2.26a7.232 7.232 0 0 1 1.709-.675 7.125 7.125 0 0 1 1.813-.248c.762 0 1.437.122 2.014.364a2.9 2.9 0 0 1 1.357 1.106c.323.496.485 1.113.485 1.851 0 .496-.138.94-.41 1.314a2.428 2.428 0 0 1-1.09.83zM49.772 86.808c0 .888-.15 1.713-.456 2.48a5.566 5.566 0 0 1-1.3 1.977c-.56.553-1.218.98-1.98 1.28-.762.3-1.587.45-2.482.45-.895 0-1.72-.15-2.477-.45a5.873 5.873 0 0 1-1.98-1.286 5.79 5.79 0 0 1-1.305-1.983 6.567 6.567 0 0 1-.456-2.473c0-.83.167-1.597.502-2.306a5.695 5.695 0 0 1 1.38-1.84 6.298 6.298 0 0 1 2.003-1.204 6.58 6.58 0 0 1 4.665 0 6.23 6.23 0 0 1 1.998 1.205 5.756 5.756 0 0 1 1.38 1.839c.34.715.508 1.481.508 2.311zm-9.393.018c0 .634.144 1.205.427 1.712.283.513.67.91 1.16 1.2a3.062 3.062 0 0 0 1.594.431c.577 0 1.108-.144 1.593-.432a3.16 3.16 0 0 0 1.155-1.199 3.488 3.488 0 0 0 .427-1.712 2.71 2.71 0 0 0-.427-1.453 3.223 3.223 0 0 0-1.16-1.101 3.148 3.148 0 0 0-1.583-.415c-.566 0-1.09.138-1.582.415-.484.277-.877.64-1.16 1.101-.3.461-.444.945-.444 1.453zM51.117 92.631V81.407h4.174c2.228 0 3.337.974 3.337 2.917 0 1.112-.41 1.873-1.236 2.294v.03c.785.103 1.357.403 1.732.898.375.502.56 1.153.56 1.96 0 1.09-.386 1.88-1.16 2.381-.774.502-1.744.75-2.91.75h-4.497v-.006zm2.921-2.237h.375c.716 0 1.282-.069 1.703-.213.416-.144.624-.467.624-.974 0-.508-.173-.836-.514-.992-.34-.156-.802-.23-1.38-.23h-.808v2.41zm0-4.583h.33c.478 0 .86-.075 1.148-.219.289-.144.433-.432.433-.865 0-.455-.15-.75-.456-.888-.306-.132-.716-.201-1.241-.201h-.214v2.173zM73.073 86.808c0 .888-.15 1.713-.456 2.48a5.645 5.645 0 0 1-1.3 1.977c-.56.553-1.218.98-1.98 1.28-.762.3-1.587.45-2.477.45-.894 0-1.72-.15-2.476-.45a5.873 5.873 0 0 1-1.98-1.286 5.693 5.693 0 0 1-1.3-1.983 6.567 6.567 0 0 1-.456-2.473c0-.83.168-1.597.503-2.306a5.695 5.695 0 0 1 1.38-1.84 6.298 6.298 0 0 1 2.003-1.204 6.58 6.58 0 0 1 4.665 0 6.23 6.23 0 0 1 1.997 1.205 5.757 5.757 0 0 1 1.38 1.839c.33.715.497 1.481.497 2.311zm-9.394.018c0 .634.145 1.205.428 1.712.282.513.67.91 1.16 1.2a3.062 3.062 0 0 0 1.594.431c.577 0 1.108-.144 1.593-.432a3.16 3.16 0 0 0 1.155-1.199 3.488 3.488 0 0 0 .427-1.712 2.71 2.71 0 0 0-.427-1.453 3.225 3.225 0 0 0-1.16-1.101 3.148 3.148 0 0 0-1.583-.415c-.566 0-1.09.138-1.582.415-.485.277-.877.64-1.16 1.101-.3.461-.445.945-.445 1.453zM77.34 83.874v1.88h3.29v2.467h-3.29v1.937h3.469v2.473h-6.397V81.407h6.397v2.467h-3.47z" clip-rule="evenodd"/><path fill="#FAB600" fill-rule="evenodd" d="M94.538 92.631h-2.922v-8.757h-2.413v-2.467h7.754v2.467h-2.42v8.757zM100.877 90.677l-.774 1.948h-3.1l4.318-11.224h3.193l4.232 11.224h-3.118l-.733-1.948h-4.018zm2.038-5.806h-.029l-1.212 3.575h2.424l-1.183-3.575zM116.141 81.407h3.62l-4.474 5.315 4.878 5.91h-3.787l-3.77-4.867h-.029v4.866h-2.921V81.407h2.921v4.623h.029l3.533-4.623zM128.993 85.171a2.917 2.917 0 0 0-1.126-.916 3.361 3.361 0 0 0-1.443-.323 3.01 3.01 0 0 0-1.559.41 2.885 2.885 0 0 0-1.062 1.123 3.343 3.343 0 0 0-.376 1.574c0 .588.127 1.113.381 1.574.254.461.612.824 1.074 1.09.462.259.993.391 1.588.391.473 0 .935-.11 1.38-.322a3.39 3.39 0 0 0 1.137-.87V92.4c-.652.197-1.143.335-1.478.41-.335.075-.704.11-1.103.11-.779 0-1.53-.145-2.251-.427a6.42 6.42 0 0 1-1.963-1.228c-1.201-1.084-1.801-2.496-1.801-4.237 0-.773.144-1.51.427-2.22a5.833 5.833 0 0 1 1.23-1.89 6.255 6.255 0 0 1 1.252-.975c.462-.271.953-.479 1.473-.623a5.759 5.759 0 0 1 1.553-.213c.866 0 1.755.19 2.667.565v3.5zM142 92.631h-2.921v-6.877h-.029l-5.352 6.877h-2.921V81.407h2.921v6.86h.029l5.352-6.86H142V92.63zM28.884 0h53.282L66.249 22.483H43.583v.006l-4.18-.006-20.761-4.923h16.113l-20.772-4.387h20.264L9.318 8.78l23.619-.121L4.659 4.393h26.28v-.006L0 0h28.884z" clip-rule="evenodd"/><path fill="#484848" fill-rule="evenodd" d="M84.763 0H141.965l-15.911 22.483H103.81l-31.453 44.43H37.399L84.763 0z" clip-rule="evenodd"/><path fill="#fff" d="M51.203 5.805h-4.6V10.4h4.6V5.805zM60.4 5.805h-4.6V10.4h4.6V5.805zM55.805 10.405h-4.602V15h4.602v-4.595zM46.608 10.405h-4.601V15h4.6v-4.595zM65.002 10.405H60.4V15h4.602v-4.595z"/></svg>