<svg width="16" height="17" viewBox="0 0 16 17" fill="none" xmlns="http://www.w3.org/2000/svg">
<g clip-path="url(#clip0_301_30)">
<path d="M15.7531 2.08936C15.5576 1.85034 15.2649 1.71875 14.9287 1.71875C14.746 1.71875 14.5524 1.7572 14.3534 1.83325L0.809717 7.0033C0.0909675 7.27759 -0.00583426 7.68921 0.000391323 7.91016C0.0066169 8.1311 0.126612 8.53662 0.859766 8.7699C0.864161 8.77124 0.868555 8.77258 0.87295 8.7738L3.68228 9.57776L5.20156 13.9222C5.40872 14.5145 5.87368 14.8824 6.41519 14.8824C6.75662 14.8824 7.09243 14.7394 7.38638 14.4689L9.12405 12.8689L11.6444 14.8983C11.6447 14.8986 11.645 14.8987 11.6453 14.8989L11.6692 14.9182C11.6714 14.9199 11.6737 14.9218 11.6759 14.9235C11.9561 15.1407 12.2619 15.2555 12.5606 15.2556H12.5607C13.1443 15.2556 13.609 14.8236 13.7444 14.1552L15.9635 3.19763C16.0526 2.75781 15.9779 2.36426 15.7531 2.08936ZM4.6221 9.42505L10.0421 6.65613L6.66726 10.2422C6.61196 10.3009 6.57278 10.3728 6.55349 10.451L5.90274 13.087L4.6221 9.42505ZM6.75125 13.7792C6.72879 13.7998 6.7062 13.8182 6.68362 13.8352L7.28738 11.3899L8.38564 12.2743L6.75125 13.7792ZM15.0447 3.01147L12.8256 13.9691C12.8042 14.074 12.736 14.318 12.5606 14.318C12.4739 14.318 12.365 14.2708 12.2536 14.1849L9.39761 11.8854C9.39724 11.885 9.39675 11.8846 9.39627 11.8844L7.69692 10.516L12.5774 5.33008C12.7337 5.16406 12.7478 4.90979 12.611 4.72742C12.474 4.54504 12.2259 4.48767 12.0229 4.59143L3.99575 8.69226L1.14822 7.87756L14.6878 2.70911C14.8021 2.66541 14.882 2.65625 14.9287 2.65625C14.9574 2.65625 15.0084 2.65967 15.0274 2.68298C15.0523 2.71338 15.084 2.81702 15.0447 3.01147Z" fill="#242C38"/>
</g>
<defs>
<clipPath id="clip0_301_30">
<rect width="16" height="16" fill="white" transform="translate(0 0.5)"/>
</clipPath>
</defs>
</svg>
