<svg width="16" height="17" viewBox="0 0 16 17" fill="none" xmlns="http://www.w3.org/2000/svg">
<g clip-path="url(#clip0_301_32)">
<path d="M11.6712 10.0379L11.6652 10.0879C10.1992 9.35728 10.0458 9.25995 9.85651 9.54395C9.72518 9.74062 9.34251 10.1866 9.22718 10.3186C9.11051 10.4486 8.99451 10.4586 8.79651 10.3686C8.59651 10.2686 7.95451 10.0586 7.19451 9.37862C6.60251 8.84862 6.20518 8.19862 6.08785 7.99862C5.89251 7.66128 6.30118 7.61328 6.67318 6.90928C6.73985 6.76928 6.70585 6.65928 6.65651 6.55995C6.60651 6.45995 6.20851 5.47995 6.04185 5.08928C5.88185 4.69995 5.71718 4.74928 5.59385 4.74928C5.20985 4.71595 4.92918 4.72128 4.68185 4.97862C3.60585 6.16128 3.87718 7.38128 4.79785 8.67862C6.60718 11.0466 7.57118 11.4826 9.33385 12.0879C9.80985 12.2393 10.2438 12.2179 10.5872 12.1686C10.9698 12.1079 11.7652 11.6879 11.9312 11.2179C12.1012 10.7479 12.1012 10.3579 12.0512 10.268C12.0018 10.1779 11.8712 10.1279 11.6712 10.0379Z" fill="#242C38"/>
<path d="M13.68 2.7984C8.554 -2.15693 0.0706667 1.43707 0.0673333 8.42773C0.0673333 9.82507 0.433333 11.1877 1.13067 12.3911L0 16.4991L4.22333 15.3977C9.49333 18.2444 15.9973 14.4644 16 8.43174C16 6.3144 15.1733 4.32173 13.67 2.8244L13.68 2.7984ZM14.668 8.40974C14.664 13.4984 9.078 16.6764 4.66 14.0791L4.42 13.9364L1.92 14.5864L2.59 12.1564L2.43067 11.9064C-0.318667 7.52974 2.84 1.80973 8.048 1.80973C9.81733 1.80973 11.478 2.49973 12.7287 3.74973C13.9787 4.98907 14.668 6.64973 14.668 8.40974Z" fill="#242C38"/>
</g>
<defs>
<clipPath id="clip0_301_32">
<rect width="16" height="16" fill="white" transform="translate(0 0.5)"/>
</clipPath>
</defs>
</svg>
